<svg xmlns="http://www.w3.org/2000/svg" xmlns:xlink="http://www.w3.org/1999/xlink" width="300" zoomAndPan="magnify" viewBox="0 0 224.87999 37.5" height="50" preserveAspectRatio="xMidYMid meet" version="1.0"><defs><g/></defs><g fill="#004aad" fill-opacity="1"><g transform="translate(1.47017, 34.874496)"><g><path d="M 1.570312 -23.296875 L 1.570312 0.125 C 5.375 0.125 8.425781 -2.703125 8.425781 -6.164062 L 8.425781 -29.585938 C 4.652344 -29.585938 1.570312 -26.757812 1.570312 -23.296875 Z M 1.570312 -23.296875 "/></g></g></g><g fill="#004aad" fill-opacity="1"><g transform="translate(11.559895, 34.874496)"><g><path d="M 6.195312 -29.398438 C 2.671875 -29.398438 -0.15625 -26.789062 -0.15625 -22.984375 L 8.046875 -22.984375 L 8.046875 0 C 11.851562 0 14.933594 -2.828125 14.933594 -6.320312 L 14.933594 -22.984375 L 16.789062 -22.984375 C 20.3125 -22.984375 23.140625 -25.59375 23.140625 -29.398438 Z M 6.195312 -29.398438 "/></g></g></g><g fill="#004aad" fill-opacity="1"><g transform="translate(34.599682, 34.874496)"><g/></g></g><g fill="#004aad" fill-opacity="1"><g transform="translate(44.029337, 34.874496)"><g><path d="M 19.085938 -14.527344 C 17.449219 -16.695312 14.839844 -18.109375 11.917969 -18.109375 L 9.808594 -18.109375 C 8.582031 -18.109375 7.578125 -19.117188 7.578125 -20.34375 L 7.578125 -20.5625 C 7.578125 -21.789062 8.582031 -22.792969 9.808594 -22.792969 L 12.828125 -22.792969 C 16.316406 -22.792969 19.148438 -25.71875 19.148438 -29.523438 L 9.808594 -29.523438 C 4.875 -29.523438 0.847656 -25.5 0.847656 -20.5625 L 0.847656 -20.34375 C 0.847656 -18.328125 1.507812 -16.476562 2.640625 -14.964844 C 4.277344 -12.796875 6.855469 -11.382812 9.808594 -11.382812 L 11.917969 -11.382812 C 13.109375 -11.382812 14.148438 -10.375 14.148438 -9.179688 L 14.148438 -8.929688 C 14.148438 -7.734375 13.109375 -6.695312 11.917969 -6.695312 L 8.144531 -6.695312 C 4.652344 -6.695312 1.824219 -3.804688 1.824219 0 L 11.917969 0 C 16.851562 0 20.875 -3.992188 20.875 -8.929688 L 20.875 -9.179688 C 20.875 -11.160156 20.214844 -13.015625 19.085938 -14.527344 Z M 19.085938 -14.527344 "/></g></g></g><g fill="#004aad" fill-opacity="1"><g transform="translate(65.434658, 34.874496)"><g><path d="M 22.667969 -26.976562 C 22.480469 -27.386719 22.164062 -27.792969 21.726562 -28.171875 C 20.53125 -29.335938 18.863281 -29.898438 17.074219 -30.058594 C 16.003906 -30.152344 12.890625 -30.214844 11.695312 -30.214844 C 10.40625 -30.214844 9.242188 -30.152344 8.113281 -30.058594 C 4.527344 -29.710938 1.570312 -27.195312 1.570312 -23.675781 L 1.570312 -6.035156 C 1.570312 -4.808594 1.917969 -3.710938 2.515625 -2.734375 C 2.703125 -2.328125 3.019531 -1.917969 3.457031 -1.539062 C 4.652344 -0.378906 6.320312 0.1875 8.113281 0.347656 C 9.179688 0.441406 10.3125 0.503906 11.507812 0.503906 C 12.796875 0.503906 15.941406 0.441406 17.074219 0.347656 C 20.65625 0 23.613281 -2.515625 23.613281 -6.035156 L 23.613281 -23.675781 C 23.613281 -24.902344 23.265625 -26 22.667969 -26.976562 Z M 17.074219 -8.046875 C 16.914062 -7.074219 16.253906 -6.382812 15.25 -6.382812 L 15.21875 -6.351562 L 9.933594 -6.351562 C 8.898438 -6.351562 8.269531 -7.074219 8.113281 -8.046875 L 8.113281 -21.851562 C 8.269531 -22.824219 8.898438 -23.519531 9.933594 -23.519531 L 15.25 -23.519531 C 16.253906 -23.519531 16.914062 -22.824219 17.074219 -21.851562 Z M 17.074219 -8.046875 "/></g></g></g><g fill="#004aad" fill-opacity="1"><g transform="translate(90.674701, 34.874496)"><g><path d="M 8.488281 -29.617188 C 4.683594 -29.617188 1.570312 -26.757812 1.570312 -23.265625 L 1.570312 -0.125 C 1.570312 -0.09375 1.570312 -0.09375 1.570312 -0.0625 L 14.117188 -0.0625 C 17.636719 -0.0625 20.46875 -3.175781 20.46875 -6.980469 L 8.488281 -6.980469 Z M 8.488281 -29.617188 "/></g></g></g><g fill="#004aad" fill-opacity="1"><g transform="translate(112.834383, 34.874496)"><g><path d="M 19.179688 -28.769531 C 16.976562 -27.699219 15.4375 -25.59375 15.4375 -23.140625 L 15.4375 -7.421875 C 15.4375 -6.507812 14.714844 -5.722656 13.800781 -5.722656 C 13.800781 -5.722656 13.800781 -5.722656 13.769531 -5.722656 L 13.769531 -5.691406 L 12.921875 -5.722656 L 10.21875 -5.722656 C 9.714844 -5.722656 9.335938 -5.878906 9.023438 -6.132812 C 8.675781 -6.445312 8.519531 -6.886719 8.519531 -7.355469 L 8.519531 -23.140625 C 8.519531 -25.53125 7.074219 -27.636719 4.90625 -28.707031 C 3.929688 -29.207031 2.796875 -29.492188 1.570312 -29.492188 L 1.570312 -6.320312 C 1.570312 -4.652344 2.265625 -3.144531 3.394531 -2.011719 C 3.519531 -1.855469 3.648438 -1.730469 3.804688 -1.636719 C 4.96875 -0.472656 6.601562 0.09375 8.394531 0.25 C 9.464844 0.347656 10.59375 0.410156 11.789062 0.410156 C 12.042969 0.410156 12.417969 0.410156 12.828125 0.410156 C 14.304688 0.378906 14.714844 0.3125 15.59375 0.25 C 16.726562 0.15625 17.765625 -0.1875 18.707031 -0.660156 C 20.90625 -1.761719 22.386719 -3.867188 22.386719 -6.320312 L 22.386719 -29.492188 C 21.222656 -29.492188 20.152344 -29.238281 19.179688 -28.769531 Z M 19.179688 -28.769531 "/></g></g></g><g fill="#004aad" fill-opacity="1"><g transform="translate(136.848567, 34.874496)"><g><path d="M 6.195312 -29.460938 C 2.671875 -29.460938 -0.15625 -26.882812 -0.15625 -23.046875 L 8.046875 -23.046875 L 8.046875 -0.0625 C 11.851562 -0.0625 14.933594 -2.890625 14.933594 -6.414062 L 14.933594 -23.046875 L 16.789062 -23.046875 C 20.277344 -23.046875 23.140625 -25.65625 23.140625 -29.460938 Z M 6.195312 -29.460938 "/></g></g></g><g fill="#004aad" fill-opacity="1"><g transform="translate(159.888354, 34.874496)"><g><path d="M 1.570312 -23.359375 L 1.570312 0.0625 C 5.375 0.0625 8.425781 -2.765625 8.425781 -6.257812 L 8.425781 -29.648438 C 4.652344 -29.648438 1.570312 -26.851562 1.570312 -23.359375 Z M 1.570312 -23.359375 "/></g></g></g><g fill="#004aad" fill-opacity="1"><g transform="translate(170.009518, 34.874496)"><g><path d="M 22.667969 -26.976562 C 22.480469 -27.386719 22.164062 -27.792969 21.726562 -28.171875 C 20.53125 -29.335938 18.863281 -29.898438 17.074219 -30.058594 C 16.003906 -30.152344 12.890625 -30.214844 11.695312 -30.214844 C 10.40625 -30.214844 9.242188 -30.152344 8.113281 -30.058594 C 4.527344 -29.710938 1.570312 -27.195312 1.570312 -23.675781 L 1.570312 -6.035156 C 1.570312 -4.808594 1.917969 -3.710938 2.515625 -2.734375 C 2.703125 -2.328125 3.019531 -1.917969 3.457031 -1.539062 C 4.652344 -0.378906 6.320312 0.1875 8.113281 0.347656 C 9.179688 0.441406 10.3125 0.503906 11.507812 0.503906 C 12.796875 0.503906 15.941406 0.441406 17.074219 0.347656 C 20.65625 0 23.613281 -2.515625 23.613281 -6.035156 L 23.613281 -23.675781 C 23.613281 -24.902344 23.265625 -26 22.667969 -26.976562 Z M 17.074219 -8.046875 C 16.914062 -7.074219 16.253906 -6.382812 15.25 -6.382812 L 15.21875 -6.351562 L 9.933594 -6.351562 C 8.898438 -6.351562 8.269531 -7.074219 8.113281 -8.046875 L 8.113281 -21.851562 C 8.269531 -22.824219 8.898438 -23.519531 9.933594 -23.519531 L 15.25 -23.519531 C 16.253906 -23.519531 16.914062 -22.824219 17.074219 -21.851562 Z M 17.074219 -8.046875 "/></g></g></g><g fill="#004aad" fill-opacity="1"><g transform="translate(195.249561, 34.874496)"><g><path d="M 19.933594 -23.234375 L 19.933594 -12.417969 L 7.984375 -29.648438 C 4.433594 -29.648438 1.570312 -26.789062 1.570312 -23.234375 L 1.570312 0.0625 C 5.125 0.0625 7.984375 -2.796875 7.984375 -6.320312 L 7.984375 -18.234375 L 19.933594 -2.265625 L 19.933594 0.0625 C 23.453125 0.0625 26.503906 -2.828125 26.503906 -6.351562 L 26.503906 -29.648438 C 22.953125 -29.648438 19.933594 -26.789062 19.933594 -23.234375 Z M 19.933594 -23.234375 "/></g></g></g></svg>